<svg width="51" height="51" viewBox="0 0 51 51" fill="none" xmlns="http://www.w3.org/2000/svg">
<rect x="0.5" y="0.5" width="50" height="50" rx="15.5" fill="#0065FC"/>
<rect x="0.5" y="0.5" width="50" height="50" rx="15.5" stroke="#0065FC"/>
<path d="M33.7688 31.6976L30.4582 28.3876C30.3088 28.2382 30.1062 28.1552 29.8937 28.1552H29.3525C30.2689 26.9832 30.8135 25.5091 30.8135 23.9056C30.8135 20.0909 27.7221 17 23.9068 17C20.0914 17 17 20.0909 17 23.9056C17 27.7202 20.0914 30.8112 23.9068 30.8112C25.5106 30.8112 26.9849 30.2667 28.1571 29.3504V29.8915C28.1571 30.104 28.2401 30.3065 28.3895 30.4559L31.7001 33.7659C32.0122 34.078 32.517 34.078 32.8258 33.7659L33.7655 32.8264C34.0776 32.5143 34.0776 32.0097 33.7688 31.6976ZM23.9068 28.1552C21.5591 28.1552 19.6564 26.2561 19.6564 23.9056C19.6564 21.5583 21.5558 19.656 23.9068 19.656C26.2544 19.656 28.1571 21.555 28.1571 23.9056C28.1571 26.2528 26.2577 28.1552 23.9068 28.1552Z" fill="white"/>
</svg>
